<?xml version="1.0" standalone="no"?>
<!DOCTYPE svg PUBLIC "-//W3C//DTD SVG 20010904//EN"
 "http://www.w3.org/TR/2001/REC-SVG-20010904/DTD/svg10.dtd">
<svg version="1.0" xmlns="http://www.w3.org/2000/svg"
 width="468pt" height="193pt" viewBox="0 0 468 193"
 preserveAspectRatio="xMidYMid meet">
<metadata>
Created by POTRACE VERSION, written by Peter Selinger 2001-2007
</metadata>
<g transform="translate(0,193) scale(0.011860,-0.011860)"
fill="#080808" stroke="none">
<path d="M35460 16193 c-59 -20 -93 -26 -160 -25 -47 1 -108 2 -137 4 -40 2
-58 -2 -80 -18 -15 -11 -55 -54 -87 -94 -33 -40 -87 -94 -121 -121 -34 -27
-84 -75 -110 -106 -26 -32 -71 -75 -101 -96 -49 -35 -55 -44 -74 -107 -11 -38
-27 -71 -36 -74 -9 -3 -34 -1 -56 6 -39 12 -42 11 -64 -18 -13 -16 -29 -45
-35 -64 -7 -19 -23 -57 -37 -85 -14 -28 -58 -83 -101 -125 -42 -41 -89 -96
-103 -122 -15 -27 -44 -69 -65 -94 -21 -26 -59 -69 -84 -98 -25 -28 -63 -87
-83 -131 -21 -44 -49 -110 -61 -147 -13 -37 -43 -100 -67 -140 -24 -40 -56
-101 -71 -134 -15 -34 -27 -75 -27 -92 0 -20 -12 -44 -35 -72 -19 -22 -37 -58
-41 -78 -3 -20 -12 -59 -19 -87 -7 -27 -32 -113 -54 -190 -22 -77 -46 -158
-54 -180 -8 -22 -18 -65 -22 -95 -4 -30 -17 -75 -30 -100 -12 -25 -27 -61 -34
-80 -6 -20 -25 -50 -41 -68 -17 -18 -30 -39 -31 -45 -1 -7 0 -71 1 -143 2
-120 -1 -141 -30 -245 -17 -63 -36 -127 -42 -144 -7 -16 -20 -43 -31 -58 -10
-15 -52 -50 -92 -77 -54 -36 -82 -63 -101 -98 -15 -26 -37 -58 -48 -71 -12
-13 -46 -40 -76 -59 -30 -19 -76 -53 -101 -76 -25 -23 -72 -63 -103 -89 -34
-30 -67 -69 -83 -100 -14 -29 -30 -55 -36 -59 -6 -4 -34 -10 -62 -13 -27 -4
-59 -12 -70 -17 -11 -6 -40 -30 -65 -53 -25 -25 -84 -62 -134 -86 -67 -33 -94
-52 -113 -80 -13 -20 -31 -58 -39 -85 -8 -26 -14 -88 -15 -138 0 -50 -5 -106
-12 -125 -7 -19 -26 -45 -43 -58 l-32 -24 -47 41 c-25 22 -52 40 -58 40 -7 0
-30 -5 -52 -11 -22 -6 -51 -21 -65 -34 -14 -12 -50 -35 -81 -49 -38 -18 -73
-26 -110 -26 -30 0 -70 -5 -90 -10 -29 -8 -41 -20 -63 -60 -15 -28 -38 -57
-51 -66 -12 -8 -51 -19 -86 -25 -35 -6 -82 -21 -104 -33 -22 -13 -69 -32 -104
-42 -52 -14 -71 -15 -105 -6 -36 9 -46 8 -86 -13 -32 -17 -83 -29 -173 -41
-120 -16 -130 -16 -163 -1 -19 10 -41 17 -50 17 -8 0 -42 -9 -76 -21 -34 -11
-77 -34 -95 -50 -27 -23 -43 -29 -78 -29 -31 0 -51 6 -64 19 -11 11 -27 43
-35 73 -9 29 -21 72 -26 95 -6 23 -23 56 -37 74 -15 17 -42 38 -60 45 -18 8
-58 14 -90 14 -50 0 -72 -7 -161 -52 -74 -38 -111 -63 -130 -89 -14 -20 -50
-51 -80 -70 -30 -19 -62 -45 -71 -59 -10 -16 -16 -48 -17 -95 -1 -38 -7 -106
-13 -150 -6 -44 -14 -118 -17 -165 -5 -67 -13 -97 -36 -142 -17 -31 -58 -88
-92 -126 -40 -44 -79 -102 -106 -157 -23 -48 -59 -103 -80 -123 -20 -21 -72
-68 -114 -107 -42 -38 -84 -82 -92 -97 -13 -25 -20 -28 -64 -28 -39 0 -54 -5
-74 -25 -14 -14 -32 -25 -41 -25 -8 0 -20 12 -25 26 -6 14 -10 70 -10 124 0
92 2 102 34 162 18 35 40 88 49 118 9 30 27 71 40 90 13 19 34 64 47 99 15 41
38 78 66 106 23 24 45 57 49 74 3 17 17 39 30 48 13 10 36 25 52 34 16 9 49
45 75 80 31 44 47 79 52 111 4 26 16 58 27 73 12 14 38 34 59 45 21 11 46 30
54 42 9 12 16 36 15 53 0 16 -15 59 -32 95 -22 45 -40 68 -57 74 -20 6 -41 2
-90 -20 -48 -20 -84 -28 -136 -30 -47 -1 -84 -9 -110 -22 -22 -11 -63 -45 -92
-76 -30 -31 -66 -84 -82 -119 -16 -34 -49 -91 -75 -127 -26 -38 -67 -80 -97
-100 -46 -31 -54 -42 -69 -91 -9 -31 -30 -83 -48 -115 -17 -33 -40 -85 -52
-117 -12 -32 -34 -73 -50 -91 -16 -18 -38 -55 -49 -81 -11 -27 -36 -65 -55
-86 -26 -29 -35 -49 -40 -92 -5 -41 -14 -62 -32 -79 -14 -13 -43 -61 -65 -107
-28 -59 -47 -121 -64 -209 -13 -68 -24 -145 -24 -170 0 -26 9 -65 19 -87 10
-22 41 -61 68 -87 34 -31 68 -52 104 -62 29 -9 83 -16 120 -16 62 0 70 3 108
34 29 24 54 36 84 39 23 2 58 5 78 5 21 0 57 13 90 32 30 17 74 51 99 75 25
24 66 53 92 64 39 16 52 29 73 70 18 37 32 52 53 57 15 3 34 8 44 10 9 3 33
26 54 52 21 26 46 55 54 64 8 9 44 31 80 49 41 20 88 55 127 95 34 34 73 66
85 69 13 4 34 17 46 29 13 11 55 71 93 133 38 61 84 124 103 140 19 15 46 36
60 46 14 9 41 46 61 81 26 47 45 69 72 81 25 12 50 16 82 12 25 -3 87 -11 136
-17 50 -7 118 -10 152 -7 34 4 77 14 95 23 18 9 55 32 82 51 27 19 72 41 100
48 28 8 91 37 141 65 49 29 102 63 118 76 15 13 44 26 65 29 20 3 55 11 77 17
22 6 65 13 96 15 46 4 62 10 85 34 21 22 37 29 66 29 28 0 40 -5 49 -21 6 -13
8 -39 4 -65 -3 -25 -21 -65 -42 -96 -22 -31 -48 -90 -64 -145 -15 -50 -33
-101 -39 -113 -6 -11 -25 -41 -43 -67 -17 -26 -46 -95 -64 -156 -18 -59 -33
-121 -33 -136 0 -15 -12 -43 -26 -62 -14 -19 -33 -49 -41 -68 -9 -22 -16 -78
-18 -151 -2 -64 -9 -129 -15 -144 -5 -15 -10 -41 -10 -58 0 -18 9 -50 21 -72
11 -23 45 -62 75 -88 30 -27 64 -48 77 -48 12 0 40 5 61 11 26 7 63 34 111 79
63 59 79 69 129 80 46 9 71 23 125 68 38 31 89 71 114 89 26 18 67 63 94 102
26 39 70 102 96 141 33 48 62 77 89 91 28 14 50 38 76 82 20 33 60 86 88 116
28 31 60 74 71 96 11 22 26 58 33 79 7 22 32 61 56 87 25 26 50 65 57 90 8 24
26 62 40 83 15 21 27 44 27 51 0 7 16 32 35 55 19 23 37 57 40 78 4 20 11 58
17 85 7 32 21 57 44 79 18 18 40 52 49 77 8 25 28 61 44 81 15 19 35 49 43 65
8 17 18 45 22 64 3 19 19 55 35 80 16 25 38 69 50 96 11 28 25 90 30 139 8 70
16 96 37 123 14 19 46 43 69 53 24 10 56 35 71 54 16 20 55 56 86 81 36 28 60
55 64 72 4 16 18 51 30 80 13 28 33 58 46 67 12 9 34 16 49 16 15 0 31 -6 37
-13 6 -6 18 -32 27 -57 9 -25 24 -65 32 -90 8 -25 24 -65 36 -90 12 -25 50
-73 84 -108 35 -36 82 -72 110 -84 30 -13 69 -21 103 -21 33 0 96 12 155 30
55 17 136 41 180 54 53 16 93 36 121 59 23 19 62 52 88 74 26 21 61 57 77 80
17 22 53 58 81 78 28 20 68 59 87 85 36 47 39 48 98 53 43 4 68 11 85 26 13
11 53 40 89 64 36 23 74 56 84 72 9 17 49 60 88 96 39 37 85 81 101 98 17 17
48 43 69 58 21 16 54 50 73 77 28 38 47 52 92 69 31 12 80 35 107 52 28 17 65
44 83 59 26 23 37 27 51 19 10 -5 24 -23 31 -40 10 -25 10 -39 0 -73 -7 -23
-16 -76 -20 -117 -5 -41 -18 -102 -30 -135 -11 -33 -25 -101 -31 -152 -5 -50
-18 -116 -28 -146 -11 -30 -24 -81 -31 -113 -7 -33 -29 -119 -51 -192 -21 -74
-47 -197 -59 -277 -11 -79 -22 -213 -25 -297 -2 -84 -9 -177 -15 -207 -5 -29
-23 -99 -40 -155 -16 -55 -36 -137 -44 -181 -8 -44 -32 -147 -55 -230 -23 -82
-41 -157 -41 -167 0 -10 -15 -67 -34 -126 -19 -59 -37 -127 -41 -152 -3 -25
-7 -139 -9 -255 l-3 -210 -37 -93 c-20 -52 -41 -126 -47 -170 -5 -42 -17 -99
-24 -127 -8 -27 -22 -120 -30 -205 -9 -85 -20 -191 -25 -234 -6 -44 -10 -117
-10 -162 0 -48 -6 -100 -14 -121 -8 -21 -25 -85 -37 -143 -20 -94 -21 -121
-15 -276 5 -111 3 -201 -4 -255 -8 -58 -20 -100 -39 -134 -16 -27 -34 -75 -40
-105 -7 -30 -14 -143 -17 -250 -4 -120 -11 -208 -18 -230 -7 -19 -21 -93 -30
-165 -9 -71 -20 -224 -26 -340 -6 -115 -15 -284 -20 -375 -6 -109 -18 -200
-34 -268 -14 -57 -30 -154 -36 -215 -6 -62 -15 -134 -20 -162 -4 -27 -17 -88
-29 -135 -11 -47 -29 -146 -41 -220 -11 -75 -23 -169 -26 -210 -2 -41 -13
-113 -24 -160 -10 -47 -24 -130 -30 -185 -6 -55 -15 -172 -20 -260 -5 -88 -16
-200 -26 -250 -9 -49 -17 -135 -17 -190 -1 -55 6 -143 16 -195 9 -52 19 -118
22 -147 4 -31 19 -73 38 -104 18 -29 50 -66 72 -81 22 -15 66 -33 97 -39 31
-6 77 -8 102 -5 28 4 61 20 89 41 24 19 57 37 73 41 16 4 56 23 89 42 33 20
70 42 82 49 13 7 30 30 38 50 9 20 43 61 76 91 33 30 77 80 98 111 21 31 45
79 54 106 8 28 18 61 21 74 3 13 1 33 -5 43 -5 10 -18 18 -28 18 -10 0 -40
-22 -67 -48 -27 -26 -71 -58 -97 -71 -39 -19 -60 -22 -104 -19 -48 4 -61 10
-85 37 -25 28 -28 38 -28 106 0 41 -7 120 -16 175 -13 85 -14 115 -4 183 6 45
26 134 43 197 29 108 31 127 32 305 l2 190 35 95 c32 84 37 112 47 250 6 85
16 196 22 245 5 50 19 149 29 220 11 72 24 193 30 270 6 77 18 158 25 180 8
22 21 76 29 120 8 44 24 123 36 175 13 62 22 150 26 255 4 113 11 178 24 220
10 33 25 92 34 130 9 45 17 144 20 275 3 142 9 226 21 275 9 39 25 103 36 142
11 40 24 110 30 155 6 46 17 130 26 188 8 58 21 150 29 205 8 55 21 170 29
255 9 85 18 209 22 275 4 80 12 136 24 168 11 26 19 64 19 83 0 19 18 83 40
142 23 59 46 141 51 182 6 41 19 113 29 160 14 63 16 97 10 132 -6 27 -5 70 0
103 5 31 21 85 35 120 14 36 32 109 40 162 7 54 17 141 21 193 5 78 11 101 30
127 14 19 32 68 44 124 18 80 20 112 14 219 -6 110 -4 138 15 220 13 52 29
106 37 121 7 15 19 60 25 100 6 41 24 108 39 149 15 41 42 147 59 235 18 88
39 185 47 216 8 30 14 69 14 85 0 16 9 67 21 114 11 47 28 132 39 190 10 58
25 123 34 145 8 22 15 60 16 85 0 27 8 58 20 78 11 17 22 51 26 75 3 23 12 76
20 118 11 57 14 132 11 298 -3 189 -6 224 -21 239 -9 11 -34 24 -56 31 -23 7
-57 14 -78 17 -20 3 -48 7 -62 9 -14 2 -50 -1 -80 -7 -30 -6 -72 -17 -93 -25
-26 -11 -44 -27 -56 -52 -11 -20 -30 -46 -43 -57 -12 -12 -40 -24 -62 -27 -21
-3 -47 -14 -58 -24 -11 -10 -35 -48 -54 -85 -27 -54 -41 -71 -69 -83 -20 -8
-55 -30 -79 -50 -31 -25 -59 -38 -94 -44 -28 -4 -62 -15 -76 -24 -14 -10 -35
-30 -47 -46 -11 -15 -44 -45 -72 -67 -29 -21 -89 -73 -134 -116 -46 -43 -109
-95 -140 -116 -32 -20 -93 -71 -135 -112 -43 -41 -103 -100 -135 -131 -32 -31
-72 -72 -89 -93 -28 -32 -36 -36 -80 -36 -27 0 -69 -5 -94 -11 -25 -6 -65 -23
-90 -39 -25 -16 -66 -34 -92 -41 -33 -9 -56 -10 -75 -3 -18 6 -31 21 -39 44
-6 19 -21 67 -33 105 -12 39 -21 90 -21 116 0 25 9 85 19 133 12 53 30 104 47
129 14 22 47 59 72 81 24 23 59 62 77 88 17 26 51 63 76 82 24 18 66 63 93 99
39 51 65 74 119 104 41 22 78 50 89 68 10 17 18 47 18 68 0 23 7 43 18 52 9 8
35 31 57 50 29 27 45 35 62 30 13 -3 32 -1 42 5 11 5 25 27 31 47 7 21 24 59
38 86 14 26 55 75 92 110 62 58 68 66 79 123 7 39 19 68 34 82 12 11 48 30 79
42 33 12 68 34 83 51 14 17 25 35 25 40 0 6 12 35 27 65 16 34 47 72 79 100
45 38 57 57 84 127 18 45 47 109 65 142 18 33 43 89 54 124 12 36 26 92 31
125 6 40 17 68 34 85 13 14 44 71 68 127 25 55 71 141 103 190 33 49 64 105
71 124 7 19 20 100 30 179 15 122 16 161 6 252 -9 86 -20 130 -57 226 -25 65
-53 135 -62 156 -9 21 -28 47 -41 58 -14 10 -32 19 -41 18 -9 0 -50 -12 -91
-26z m-345 -507 c11 -8 31 -35 44 -61 14 -29 21 -56 18 -73 -3 -15 -12 -65
-21 -112 -8 -47 -19 -131 -25 -187 -9 -94 -13 -108 -60 -195 -27 -51 -55 -115
-61 -143 -6 -27 -24 -66 -40 -87 -16 -20 -38 -67 -48 -105 -11 -37 -34 -102
-53 -143 -18 -41 -46 -95 -62 -119 -16 -24 -42 -80 -58 -125 -16 -44 -29 -82
-29 -83 0 -1 -28 -18 -62 -38 -34 -20 -68 -44 -75 -53 -6 -10 -15 -29 -18 -44
-4 -15 -39 -63 -80 -106 -40 -44 -96 -114 -124 -156 -28 -42 -62 -82 -74 -90
-12 -8 -34 -18 -50 -21 -15 -4 -38 -20 -52 -36 -13 -16 -34 -56 -46 -89 -14
-38 -34 -71 -56 -90 -18 -17 -45 -30 -58 -30 -14 0 -29 8 -35 21 -7 12 -9 38
-5 62 4 23 14 69 22 102 8 33 17 100 18 148 3 79 6 91 32 123 15 19 38 49 51
66 15 22 22 45 22 78 0 26 6 63 14 81 8 19 20 63 26 99 6 36 22 86 35 112 13
25 36 90 51 143 21 73 38 112 71 157 24 33 48 71 54 84 5 14 9 38 9 52 0 15 7
38 16 50 8 12 32 31 53 42 35 17 41 26 65 103 20 65 34 92 59 114 19 16 47 49
64 74 17 24 48 60 68 79 20 19 51 55 68 80 17 25 58 75 90 113 33 37 66 67 73
67 7 0 22 10 34 22 11 12 20 34 20 49 0 14 9 38 21 53 13 17 30 26 48 26 14 0
36 -6 46 -14z m-3170 -4720 c4 -23 1 -62 -5 -87 -6 -24 -22 -55 -34 -69 -13
-14 -41 -52 -64 -85 -22 -33 -46 -80 -52 -105 -6 -25 -16 -60 -21 -78 -6 -17
-20 -37 -32 -43 -17 -10 -24 -8 -39 11 -10 12 -18 36 -18 52 0 17 12 53 26 82
14 28 34 60 43 71 10 11 27 42 37 69 10 27 28 61 40 76 13 15 33 53 45 86 12
32 26 65 32 72 7 9 13 9 23 1 7 -6 16 -30 19 -53z"/>
<path d="M31175 16111 c-23 -10 -63 -21 -90 -25 -28 -4 -126 -32 -220 -63 -93
-30 -195 -64 -225 -76 -30 -11 -102 -47 -159 -80 -57 -33 -133 -72 -170 -87
-48 -20 -72 -36 -89 -61 -12 -19 -31 -43 -41 -54 -10 -11 -50 -30 -89 -43 -53
-17 -84 -35 -130 -76 -33 -30 -80 -67 -104 -84 -24 -16 -70 -42 -102 -58 -37
-18 -66 -40 -75 -57 -9 -16 -24 -40 -34 -53 -10 -13 -34 -26 -54 -30 -24 -4
-60 -29 -112 -73 -42 -37 -102 -82 -135 -101 -32 -19 -73 -53 -91 -75 -18 -22
-42 -61 -53 -87 -15 -34 -34 -55 -71 -80 -29 -19 -59 -50 -72 -73 -12 -22 -41
-60 -65 -85 -23 -25 -57 -60 -76 -78 -18 -18 -86 -81 -151 -140 -66 -58 -143
-138 -172 -176 -29 -39 -62 -92 -73 -119 -12 -26 -40 -71 -64 -100 -24 -28
-69 -81 -102 -117 -32 -36 -72 -92 -88 -125 -17 -33 -55 -86 -84 -118 -30 -32
-57 -70 -60 -85 -4 -15 -22 -65 -41 -112 -18 -46 -41 -92 -49 -101 -9 -10 -28
-49 -44 -88 -16 -39 -50 -104 -76 -144 -26 -39 -59 -99 -74 -132 -15 -33 -39
-73 -54 -88 -18 -19 -26 -39 -26 -63 0 -20 -5 -45 -11 -57 -7 -12 -27 -39 -47
-61 -19 -21 -42 -57 -52 -80 -10 -22 -21 -72 -25 -111 -4 -38 -13 -81 -20 -95
-7 -14 -33 -43 -57 -66 -24 -22 -58 -51 -76 -63 -18 -13 -43 -44 -57 -71 -13
-26 -27 -71 -31 -100 -4 -31 -16 -63 -29 -78 -12 -15 -40 -63 -62 -107 -22
-44 -63 -123 -90 -175 -28 -52 -61 -130 -73 -173 -11 -42 -28 -93 -36 -112 -7
-19 -14 -44 -14 -56 0 -12 -17 -40 -38 -63 -27 -30 -52 -78 -90 -176 -30 -74
-68 -156 -85 -182 -19 -28 -44 -52 -62 -59 -16 -6 -40 -15 -51 -19 -12 -5 -31
-29 -43 -54 -13 -26 -26 -78 -30 -125 -5 -44 -16 -92 -24 -105 -9 -13 -35 -37
-58 -53 -23 -15 -51 -40 -62 -55 -12 -17 -26 -66 -38 -134 -11 -64 -25 -114
-35 -125 -12 -14 -31 -19 -65 -19 -47 0 -48 1 -58 38 -6 20 -11 52 -11 70 0
19 -9 65 -21 103 -13 43 -19 85 -17 112 3 23 13 85 22 137 9 52 26 124 38 159
16 51 19 79 15 145 -3 44 -10 120 -17 168 -10 80 -10 89 9 126 11 22 24 66 30
98 5 33 22 100 37 149 25 83 27 108 33 315 4 153 10 232 19 247 7 13 21 27 31
33 11 5 24 25 30 42 5 18 14 65 20 103 6 39 24 111 42 160 18 52 33 120 36
162 5 65 9 75 39 104 26 25 34 41 34 68 0 20 7 66 15 103 7 37 23 88 34 113
11 26 26 85 32 133 8 65 21 107 50 168 38 77 41 91 60 269 12 103 18 203 14
222 -3 19 -15 43 -26 54 -16 16 -33 19 -113 19 -51 0 -108 -5 -127 -12 -19 -6
-59 -27 -89 -46 -30 -19 -70 -49 -88 -66 -18 -17 -50 -58 -72 -91 -21 -33 -48
-92 -58 -131 -11 -40 -26 -82 -33 -95 -6 -13 -23 -38 -35 -55 -13 -16 -35 -60
-48 -96 -14 -36 -32 -105 -40 -154 -13 -70 -22 -95 -46 -123 -16 -20 -41 -50
-55 -67 -17 -21 -32 -64 -49 -138 -19 -90 -31 -118 -69 -174 -24 -37 -52 -80
-60 -97 -9 -16 -34 -51 -56 -78 -23 -28 -48 -74 -61 -113 -12 -36 -37 -85 -55
-109 -19 -24 -40 -56 -48 -72 -8 -15 -20 -46 -27 -68 -7 -22 -35 -86 -62 -143
-27 -58 -54 -134 -62 -172 -8 -44 -25 -87 -47 -121 -19 -30 -54 -76 -78 -103
-24 -27 -50 -64 -57 -83 -8 -18 -21 -63 -29 -101 -9 -37 -20 -79 -26 -93 -5
-14 -30 -42 -53 -62 -27 -22 -60 -66 -86 -114 -23 -43 -61 -99 -85 -124 -23
-25 -50 -60 -59 -77 -9 -17 -36 -55 -59 -84 -24 -29 -61 -80 -84 -113 -22 -33
-50 -69 -62 -79 -11 -10 -33 -40 -48 -65 -15 -25 -48 -72 -74 -103 -26 -32
-76 -83 -111 -114 -35 -30 -71 -70 -80 -87 -10 -17 -18 -40 -18 -50 0 -10 -6
-33 -14 -52 -10 -24 -29 -41 -63 -59 -30 -15 -80 -60 -134 -118 -47 -51 -88
-98 -92 -105 -4 -7 -17 -54 -28 -105 -13 -61 -28 -101 -42 -116 -12 -13 -43
-35 -69 -48 -29 -15 -58 -40 -74 -64 -15 -22 -46 -51 -70 -65 -23 -14 -59 -45
-80 -70 -20 -25 -40 -45 -45 -45 -5 0 -19 20 -31 44 -21 43 -21 46 -5 139 9
52 13 103 11 114 -3 11 -1 54 5 97 6 42 18 90 26 106 8 16 21 78 29 137 8 59
17 182 20 273 4 91 12 196 20 234 9 45 12 106 8 175 -4 88 -1 121 17 190 12
47 26 133 32 193 5 59 13 137 18 172 5 34 18 81 29 103 11 21 27 73 36 116 9
42 16 120 16 174 0 54 7 136 15 183 8 47 15 106 15 131 0 25 11 83 25 129 14
46 32 143 41 215 12 96 24 148 46 198 16 37 38 102 48 144 12 46 18 90 14 112
-4 27 2 58 21 112 15 41 40 124 57 184 16 61 47 169 69 241 27 91 37 140 33
162 -4 20 3 60 19 114 14 46 33 108 41 139 9 30 27 71 41 90 14 19 36 57 49
84 13 28 31 92 40 144 13 76 23 105 50 145 23 33 39 73 47 114 7 35 10 101 7
150 -3 49 -11 99 -18 113 -7 13 -30 44 -51 69 -21 25 -63 60 -93 79 -52 31
-57 32 -93 21 -21 -7 -69 -28 -108 -47 -38 -20 -81 -45 -94 -57 -13 -11 -39
-46 -58 -76 -20 -30 -50 -71 -68 -91 -20 -22 -43 -67 -59 -116 -15 -45 -35
-88 -46 -98 -15 -14 -18 -30 -18 -88 1 -55 -11 -123 -50 -282 -28 -115 -62
-248 -76 -295 -13 -47 -36 -127 -50 -178 -14 -51 -33 -106 -41 -122 -9 -17
-20 -65 -25 -107 -5 -43 -16 -141 -26 -218 -13 -110 -21 -147 -39 -175 -13
-19 -39 -82 -58 -140 -19 -58 -45 -154 -57 -215 -13 -60 -26 -130 -31 -155 -4
-25 -8 -69 -8 -98 -1 -33 7 -72 20 -103 l21 -49 -20 -52 c-12 -29 -26 -71 -31
-93 -6 -22 -17 -74 -25 -115 -9 -41 -24 -108 -36 -149 -11 -41 -20 -105 -20
-142 0 -58 -4 -72 -26 -98 -18 -22 -28 -50 -35 -98 -6 -38 -11 -135 -11 -218
0 -82 5 -188 11 -235 7 -57 7 -107 1 -150 -5 -36 -10 -141 -10 -235 0 -93 -6
-226 -14 -295 -11 -110 -17 -132 -42 -170 -29 -43 -29 -45 -31 -209 -1 -91 -4
-267 -6 -391 -2 -124 -7 -255 -11 -292 -6 -45 -4 -84 4 -120 7 -29 22 -71 33
-93 11 -22 33 -57 49 -77 19 -24 42 -41 66 -47 20 -5 60 -12 89 -16 29 -4 66
-4 83 0 23 5 41 22 71 66 22 33 57 70 77 84 22 15 62 28 98 33 47 6 70 16 103
43 24 19 65 68 92 109 27 41 49 86 49 100 0 14 8 41 18 60 9 19 49 76 88 125
41 52 102 149 143 227 65 124 77 140 124 171 29 19 62 46 74 59 12 13 31 45
43 71 15 33 19 57 14 81 -3 19 -1 51 6 71 7 22 24 44 44 56 17 10 41 19 53 19
12 0 48 10 80 22 32 11 72 35 89 52 21 21 38 55 53 106 20 67 29 81 85 135 35
33 68 69 73 80 6 11 14 43 18 70 5 34 16 60 35 80 15 17 33 40 39 52 6 13 44
44 84 70 58 39 82 63 122 124 28 42 71 99 96 125 29 32 50 66 58 97 9 32 28
62 56 90 23 23 58 72 79 108 20 36 36 71 36 78 0 6 21 62 47 124 29 69 59 124
79 145 18 17 41 32 52 32 13 0 21 -8 24 -24 3 -13 -1 -45 -9 -72 -7 -27 -18
-74 -24 -104 -6 -30 -8 -81 -5 -113 5 -47 0 -82 -25 -175 -30 -113 -31 -121
-23 -247 5 -71 7 -170 6 -220 -1 -49 -2 -169 -1 -265 0 -96 2 -294 4 -440 1
-146 4 -310 6 -366 4 -92 7 -106 41 -175 20 -40 51 -91 68 -111 29 -36 35 -38
88 -38 31 -1 68 -7 82 -15 14 -8 43 -14 65 -15 35 0 45 6 90 53 27 29 89 79
137 110 47 32 98 71 113 89 14 17 40 58 57 92 16 34 55 95 85 136 31 41 67 87
80 101 15 17 29 51 38 92 9 45 30 93 68 155 37 61 58 109 66 150 8 41 25 80
52 119 22 32 54 79 72 105 18 26 48 73 68 105 20 32 46 88 58 124 12 37 38 93
57 125 20 33 54 94 75 137 22 43 60 110 86 150 25 40 54 90 64 112 10 23 31
53 47 67 18 15 34 43 40 71 7 28 28 65 53 93 22 26 60 88 84 138 23 50 46 102
50 116 4 14 26 61 50 105 24 44 48 99 54 121 7 27 28 59 56 88 26 26 59 75 76
113 17 38 46 128 65 201 19 74 39 144 46 155 6 12 26 39 44 60 27 30 34 45 34
80 0 23 4 57 9 75 5 18 25 50 44 72 20 24 43 68 56 109 12 37 36 89 55 115 23
33 37 67 46 118 11 65 17 75 60 117 34 33 61 74 94 145 25 54 70 131 99 170
30 39 62 94 72 121 9 28 33 78 52 113 19 35 62 95 95 135 33 40 67 86 74 103
7 18 36 48 64 69 45 33 52 44 71 106 15 50 28 74 47 87 15 9 58 49 97 88 38
39 87 83 107 98 21 14 58 55 83 91 36 50 58 70 100 90 30 14 58 25 63 25 4 0
20 13 35 28 15 15 27 33 27 38 0 6 8 19 19 28 10 9 38 27 62 39 33 17 49 33
66 68 15 33 31 50 55 60 18 7 59 37 90 66 31 29 88 68 125 88 37 19 109 68
160 108 51 39 108 92 126 117 19 25 45 50 58 57 13 6 49 19 79 27 31 8 83 29
115 46 33 17 105 47 160 66 55 20 130 44 166 53 36 10 95 28 131 40 62 21 69
21 97 6 21 -10 41 -36 61 -75 16 -32 46 -71 65 -86 20 -15 43 -40 50 -55 8
-15 28 -63 44 -108 16 -44 38 -93 49 -108 11 -16 29 -47 40 -70 12 -23 27 -74
33 -115 6 -40 17 -85 24 -99 8 -14 27 -40 44 -58 26 -28 31 -41 31 -84 0 -28
-8 -96 -17 -151 -14 -85 -15 -113 -5 -181 7 -45 12 -120 12 -168 0 -50 -6
-102 -14 -124 -8 -21 -17 -67 -19 -103 -3 -36 -21 -114 -41 -175 -19 -60 -46
-153 -60 -205 -13 -52 -27 -113 -31 -135 -3 -22 -35 -130 -71 -240 -35 -109
-71 -233 -80 -275 -10 -49 -28 -97 -54 -140 -21 -36 -43 -83 -49 -105 -6 -22
-15 -85 -21 -140 -7 -59 -18 -111 -28 -126 -9 -15 -30 -45 -45 -67 -15 -22
-43 -84 -62 -138 -18 -55 -44 -122 -56 -151 -22 -51 -22 -53 -4 -92 12 -28 16
-53 12 -82 -3 -23 -15 -54 -26 -68 -11 -14 -38 -58 -59 -97 -22 -38 -47 -94
-56 -122 -10 -29 -34 -76 -54 -105 -19 -28 -49 -92 -65 -142 -16 -49 -29 -100
-29 -113 0 -13 10 -34 23 -48 13 -14 37 -32 52 -41 22 -11 35 -12 61 -3 18 5
48 27 68 48 20 20 40 46 46 57 5 11 13 45 17 74 6 42 15 62 37 85 17 16 41 46
53 65 13 20 38 77 55 128 17 51 46 117 65 148 18 31 39 80 45 108 6 28 38 105
71 170 57 111 61 124 64 196 1 43 8 88 14 100 7 12 36 37 64 55 29 19 62 44
74 58 12 13 29 40 38 60 8 21 15 54 15 73 0 20 5 45 10 56 6 10 24 26 41 35
20 10 38 32 51 62 18 40 21 65 19 176 -1 83 3 134 10 142 6 8 27 14 46 14 30
0 36 5 49 37 9 20 27 91 41 157 14 67 36 146 49 176 13 30 31 99 39 153 10 64
25 118 44 155 16 32 36 83 45 113 8 29 20 110 27 179 6 69 19 154 29 190 10
36 27 97 38 135 12 39 26 108 32 155 5 46 10 114 10 151 0 45 -6 81 -20 110
-12 27 -20 66 -20 100 0 31 7 96 16 145 10 59 14 116 10 169 -3 44 -17 124
-30 179 -13 55 -33 110 -45 125 -12 14 -30 45 -41 69 -11 23 -32 54 -47 69
-16 14 -68 56 -118 92 -49 37 -108 74 -130 84 -27 12 -51 34 -73 68 -18 27
-47 59 -65 70 -18 10 -43 22 -55 26 -13 3 -42 0 -63 -7 -33 -11 -47 -11 -77 0
-20 7 -41 14 -47 16 -5 2 -28 -5 -50 -15z"/>
<path d="M1373 13690 c-23 -12 -51 -34 -63 -48 -11 -15 -33 -47 -50 -72 -16
-25 -30 -49 -30 -55 0 -5 -23 -58 -51 -117 -42 -89 -54 -128 -70 -225 -11 -65
-33 -169 -50 -231 -16 -62 -41 -136 -55 -165 -15 -28 -30 -79 -34 -112 -4 -33
-3 -109 1 -170 5 -70 4 -152 -3 -225 -6 -63 -17 -130 -25 -149 -10 -25 -12
-61 -7 -135 3 -56 1 -121 -4 -146 -5 -25 -28 -115 -51 -200 -23 -85 -48 -168
-56 -185 -9 -19 -16 -78 -19 -157 -4 -112 -9 -140 -40 -230 -19 -57 -40 -123
-46 -148 -5 -25 -15 -106 -20 -181 -7 -95 -17 -161 -34 -215 -14 -44 -32 -108
-40 -144 -10 -42 -16 -115 -16 -203 0 -120 -3 -143 -19 -165 -10 -15 -26 -59
-35 -99 -9 -39 -25 -134 -36 -210 -11 -76 -20 -166 -20 -200 0 -35 5 -82 12
-106 11 -41 10 -46 -17 -81 -24 -31 -29 -51 -36 -129 -5 -50 -13 -148 -19
-217 -5 -69 -15 -156 -21 -195 -6 -38 -17 -100 -25 -138 -10 -52 -12 -115 -7
-271 4 -141 2 -237 -7 -317 -7 -63 -19 -129 -27 -148 -8 -18 -22 -83 -32 -145
-15 -90 -17 -148 -14 -306 5 -183 4 -199 -17 -260 -18 -53 -24 -98 -30 -240
-6 -124 -13 -188 -25 -220 -9 -25 -23 -103 -31 -175 -7 -71 -14 -166 -14 -210
0 -44 -5 -168 -11 -275 -6 -107 -15 -213 -20 -235 -6 -22 -19 -83 -30 -135
-10 -52 -19 -118 -19 -145 0 -28 -7 -107 -15 -175 -10 -76 -13 -150 -9 -191 6
-64 5 -71 -36 -160 -24 -51 -45 -114 -48 -139 -2 -31 3 -60 16 -91 11 -25 33
-61 49 -80 16 -19 41 -53 56 -76 15 -25 35 -43 45 -43 10 0 31 14 48 31 16 18
52 42 79 54 28 13 61 36 76 51 14 16 44 55 68 86 24 32 65 71 92 88 27 16 61
48 76 70 16 22 40 57 56 77 15 21 52 70 82 108 39 49 61 90 76 138 15 47 32
79 55 101 20 20 44 60 60 102 14 38 34 83 45 100 10 17 24 55 30 84 6 30 20
70 31 89 11 20 33 47 48 61 16 14 33 42 40 62 6 20 29 63 50 95 22 32 48 69
60 83 12 16 23 52 30 98 6 41 15 83 21 94 6 11 25 26 43 33 18 8 38 21 46 30
7 8 16 36 21 61 6 31 21 59 43 85 19 21 50 71 69 111 24 51 46 83 75 106 34
27 45 44 62 102 13 45 43 103 84 165 35 53 69 115 75 140 6 24 21 52 35 62 13
10 31 34 41 53 10 19 37 57 61 83 24 27 66 94 93 150 37 76 65 116 106 157 31
30 69 78 85 105 17 28 30 60 30 72 0 11 16 40 35 63 19 23 35 53 35 67 0 14
12 36 29 51 16 15 43 37 60 50 17 13 53 56 81 95 27 40 71 110 97 157 29 50
71 108 106 141 43 42 61 68 72 106 8 28 22 57 31 64 9 7 30 33 47 58 17 25 37
50 45 55 8 5 32 24 53 43 29 26 45 55 70 124 28 79 39 96 83 135 28 24 54 44
57 44 4 0 28 27 53 60 31 42 47 74 52 106 6 41 17 56 99 138 91 91 93 94 109
166 9 40 22 82 28 94 6 12 22 35 35 51 14 17 62 68 108 115 71 73 85 93 99
142 14 49 22 60 56 79 22 12 42 30 44 38 2 9 7 36 10 61 4 25 15 58 25 74 10
15 39 42 64 60 25 18 61 52 79 77 19 24 60 62 92 84 55 38 61 46 111 155 50
109 57 118 126 176 41 33 85 77 99 97 14 20 36 44 50 54 14 9 30 24 37 33 7 8
12 33 13 55 0 22 -11 64 -26 95 -14 30 -33 63 -41 72 -9 10 -22 18 -29 18 -8
0 -55 -18 -105 -40 -51 -21 -107 -53 -124 -70 -18 -17 -46 -59 -63 -93 -17
-34 -56 -93 -87 -132 -46 -57 -55 -74 -50 -96 4 -17 0 -40 -9 -58 -9 -17 -36
-42 -59 -56 -24 -14 -53 -25 -65 -25 -12 0 -35 -12 -51 -27 -17 -17 -37 -53
-49 -90 -11 -35 -36 -81 -54 -105 -18 -23 -49 -58 -68 -77 -19 -20 -50 -44
-67 -53 -18 -9 -41 -31 -52 -49 -11 -18 -23 -50 -26 -71 -6 -32 -16 -46 -55
-74 -26 -19 -76 -67 -111 -108 -50 -58 -70 -90 -87 -143 -17 -53 -38 -87 -97
-158 -41 -49 -95 -111 -120 -138 -25 -26 -45 -56 -45 -66 0 -10 -5 -32 -11
-49 -6 -18 -26 -41 -45 -52 -18 -12 -49 -47 -68 -78 -19 -31 -51 -73 -71 -92
-20 -19 -51 -55 -67 -80 -17 -25 -56 -71 -87 -103 -31 -32 -68 -65 -83 -73
-17 -9 -40 -40 -62 -85 -20 -40 -36 -83 -36 -96 0 -13 -7 -37 -15 -52 -8 -16
-30 -36 -49 -45 -19 -9 -48 -28 -65 -42 -16 -13 -35 -41 -42 -62 -6 -20 -18
-52 -27 -70 -10 -22 -30 -41 -61 -56 -25 -13 -54 -33 -63 -43 -10 -11 -26 -44
-37 -74 -10 -30 -28 -74 -40 -98 -12 -23 -47 -69 -77 -102 -30 -32 -54 -64
-54 -70 0 -7 -24 -35 -52 -64 -29 -29 -78 -80 -108 -114 -30 -35 -65 -81 -77
-103 -13 -23 -23 -52 -23 -65 0 -13 -7 -40 -15 -59 -8 -19 -31 -58 -52 -86
-21 -28 -66 -79 -100 -112 -34 -35 -70 -81 -80 -106 -11 -25 -25 -67 -33 -93
-7 -26 -25 -60 -39 -75 -15 -15 -47 -43 -72 -63 -37 -30 -52 -53 -83 -127 -25
-61 -53 -108 -88 -148 -30 -35 -69 -97 -94 -150 -25 -54 -56 -102 -74 -117
-17 -15 -47 -55 -67 -89 -21 -35 -51 -92 -69 -126 -18 -35 -49 -81 -69 -102
-21 -21 -54 -71 -74 -112 -26 -53 -42 -74 -58 -76 -18 -3 -24 4 -33 40 -7 23
-9 63 -6 88 3 25 14 56 25 70 10 14 25 39 34 56 12 24 14 40 6 73 -5 24 -16
56 -24 72 -9 16 -15 55 -15 90 0 33 6 87 14 118 8 31 22 117 31 191 9 74 26
160 37 190 10 30 29 84 40 120 19 58 22 101 28 420 l8 355 36 130 c25 92 39
167 46 255 5 69 12 157 16 195 3 39 12 102 19 140 8 39 19 111 24 160 6 50 16
135 22 190 5 55 19 168 29 250 10 83 21 186 24 230 4 44 22 150 42 235 20 85
42 184 49 220 7 36 17 76 22 90 6 14 11 82 12 153 0 70 6 148 11 173 6 25 26
75 44 112 23 46 38 93 45 147 6 44 18 105 26 135 8 30 28 147 45 260 17 113
38 227 46 253 9 27 22 78 30 115 8 37 21 101 29 142 8 41 21 98 29 125 7 28
17 97 20 155 4 58 14 144 22 191 8 48 32 149 55 225 22 77 45 179 51 229 5 49
20 123 34 163 15 47 24 98 24 137 0 35 9 92 20 127 11 34 20 77 20 94 0 18 16
93 35 168 33 131 35 145 35 311 0 152 -3 181 -21 229 -11 31 -26 59 -32 63 -7
5 -43 8 -82 9 -38 1 -95 4 -125 8 -46 6 -62 4 -97 -14z"/>
<path d="M9940 12055 c-17 -9 -54 -13 -110 -13 -56 1 -94 -3 -111 -13 -15 -8
-48 -37 -73 -65 -25 -29 -59 -80 -74 -115 -16 -35 -48 -88 -71 -116 -24 -31
-61 -63 -89 -77 -26 -13 -57 -35 -69 -48 -12 -12 -26 -36 -32 -51 -6 -16 -11
-43 -11 -61 0 -17 -5 -37 -12 -44 -7 -7 -24 -12 -38 -12 -14 0 -35 -7 -47 -15
-12 -8 -28 -38 -37 -68 -9 -28 -47 -115 -85 -192 -38 -77 -92 -178 -120 -224
-34 -56 -61 -119 -81 -185 -17 -58 -50 -135 -77 -181 -25 -44 -60 -96 -77
-115 -17 -19 -48 -69 -69 -110 -20 -41 -44 -106 -52 -145 -8 -38 -15 -87 -15
-108 0 -30 -7 -45 -34 -70 -22 -21 -35 -45 -39 -69 -3 -20 -21 -78 -40 -130
-19 -51 -40 -127 -46 -168 -7 -41 -25 -113 -41 -160 -16 -47 -32 -101 -36
-120 -3 -19 -15 -47 -26 -63 -13 -17 -24 -62 -33 -126 -8 -55 -24 -127 -35
-161 -11 -34 -39 -103 -62 -153 -22 -51 -48 -103 -58 -117 -9 -14 -35 -59 -57
-100 -22 -41 -44 -91 -47 -110 -4 -19 -12 -48 -18 -63 -6 -16 -27 -36 -47 -47
-20 -10 -54 -37 -76 -60 -22 -23 -55 -50 -73 -62 -18 -11 -43 -39 -57 -62 -14
-24 -34 -68 -45 -100 -11 -32 -36 -80 -56 -108 -26 -34 -52 -56 -83 -70 -25
-11 -54 -27 -65 -36 -10 -9 -31 -37 -46 -60 -15 -24 -49 -60 -76 -80 -37 -28
-57 -54 -84 -109 -19 -39 -47 -84 -61 -100 -15 -15 -36 -47 -48 -70 -11 -23
-35 -52 -53 -64 -18 -13 -59 -48 -92 -79 -32 -30 -66 -71 -76 -91 -10 -20 -34
-48 -54 -62 -19 -15 -55 -54 -81 -88 -25 -33 -50 -70 -54 -82 -5 -12 -12 -44
-16 -72 -4 -27 -11 -58 -16 -67 -5 -10 -34 -25 -64 -33 -35 -11 -62 -26 -77
-44 -13 -16 -31 -42 -40 -59 -9 -17 -34 -40 -55 -50 -21 -11 -59 -43 -83 -70
-25 -28 -60 -68 -79 -89 -23 -26 -38 -57 -48 -98 -7 -32 -20 -66 -27 -75 -8
-8 -26 -39 -40 -68 -15 -29 -42 -73 -61 -98 -19 -25 -60 -74 -91 -109 -44 -50
-68 -68 -106 -81 -38 -12 -60 -29 -102 -79 -42 -50 -55 -73 -61 -110 -3 -26
-9 -54 -12 -62 -3 -7 -19 -21 -35 -29 -27 -14 -32 -14 -45 -1 -10 10 -12 25
-8 51 4 20 19 53 33 74 23 32 27 51 32 142 3 58 12 118 19 135 7 16 19 65 27
109 9 43 24 102 34 130 10 28 25 98 34 156 8 58 18 150 21 205 3 55 12 139 19
186 11 62 13 142 10 288 l-5 203 -38 113 c-22 63 -50 133 -63 157 -15 28 -31
44 -46 46 -14 2 -41 -8 -65 -24 -22 -15 -64 -33 -91 -40 -28 -8 -68 -14 -89
-14 -21 0 -62 -12 -95 -29 -38 -19 -84 -57 -136 -111 -76 -80 -80 -82 -116
-77 -24 3 -46 0 -58 -9 -10 -7 -29 -36 -41 -65 -12 -28 -41 -71 -63 -95 l-40
-43 12 -53 c6 -29 17 -64 24 -78 6 -14 20 -26 29 -28 10 -2 25 2 33 9 8 7 21
27 28 44 10 23 26 37 55 49 28 11 48 13 59 7 10 -5 25 -17 34 -28 8 -10 25
-56 37 -102 12 -47 21 -94 21 -106 0 -12 -10 -48 -22 -81 -18 -51 -23 -90 -29
-274 -4 -118 -12 -285 -18 -370 -9 -131 -16 -169 -42 -245 -30 -87 -31 -97
-39 -330 -5 -132 -11 -266 -15 -298 -3 -31 -18 -79 -32 -107 -14 -27 -28 -69
-30 -93 -3 -25 0 -62 7 -83 7 -21 38 -64 67 -96 43 -45 64 -59 103 -68 36 -9
58 -9 91 0 32 8 58 26 94 64 28 29 76 69 107 89 31 20 64 50 73 67 9 18 32 47
52 66 20 19 53 44 74 54 21 11 45 20 53 20 8 0 27 11 43 24 15 13 53 68 83
121 30 53 70 119 88 147 27 40 37 70 49 142 9 56 21 97 31 108 9 9 42 25 72
35 52 17 57 21 91 86 19 37 58 91 86 120 27 29 61 68 74 87 12 19 47 63 77 97
33 37 70 68 93 77 25 10 55 36 84 73 25 32 50 76 56 98 6 22 21 57 35 77 13
20 44 49 68 63 40 23 47 33 67 93 11 37 32 86 46 110 18 32 38 49 78 68 34 16
78 51 121 97 38 40 77 87 86 104 12 23 26 34 51 38 26 5 38 14 45 33 6 15 18
59 28 97 16 65 23 76 100 156 58 60 91 105 112 150 16 35 41 75 55 88 14 13
47 37 74 55 33 22 52 43 63 71 8 22 22 51 30 65 8 14 22 43 30 65 10 27 26 45
49 57 18 9 39 14 47 11 8 -3 21 -30 30 -61 12 -39 15 -74 10 -116 -4 -42 -15
-73 -34 -101 -26 -38 -27 -45 -28 -170 0 -71 -4 -140 -8 -152 -4 -12 -13 -57
-20 -100 -8 -43 -23 -112 -34 -153 -11 -41 -27 -118 -36 -170 -8 -52 -18 -169
-22 -259 -7 -152 -9 -168 -34 -215 -23 -43 -28 -68 -34 -163 -5 -89 -14 -136
-42 -225 -35 -107 -37 -123 -43 -293 -6 -140 -11 -187 -24 -212 -10 -18 -30
-44 -45 -58 l-27 -25 0 -208 c-1 -114 -2 -217 -3 -228 -1 -12 -18 -45 -37 -74
-32 -47 -35 -59 -35 -122 0 -39 -7 -116 -16 -172 -9 -55 -24 -132 -35 -171
-11 -38 -28 -125 -39 -193 -11 -68 -27 -138 -34 -157 -8 -18 -28 -46 -45 -61
-17 -15 -36 -45 -41 -66 -8 -27 -7 -55 2 -98 10 -50 9 -67 -4 -112 -9 -29 -19
-71 -23 -93 -4 -22 -16 -55 -27 -73 -14 -22 -23 -61 -28 -120 -4 -48 -17 -112
-28 -142 -11 -30 -37 -100 -57 -155 -21 -55 -41 -117 -46 -138 -5 -20 -16 -90
-25 -154 -12 -92 -23 -135 -51 -198 -34 -73 -37 -90 -43 -200 -4 -88 -11 -129
-24 -155 -11 -19 -32 -51 -47 -70 -20 -24 -29 -46 -29 -71 0 -21 -13 -60 -30
-93 -22 -40 -35 -85 -45 -152 -12 -79 -22 -110 -57 -173 l-43 -76 0 -110 c-1
-81 -5 -118 -17 -140 -9 -17 -43 -62 -75 -101 -33 -39 -67 -90 -77 -113 -9
-24 -21 -85 -25 -135 -5 -51 -16 -108 -24 -128 -8 -19 -20 -59 -26 -88 -6 -30
-16 -60 -23 -67 -6 -7 -21 -13 -34 -13 -17 0 -25 7 -30 26 -4 15 3 151 15 303
13 152 29 303 37 336 8 34 14 114 14 185 0 69 5 163 10 208 6 46 22 120 36
165 14 45 38 110 55 144 17 36 29 78 29 101 0 22 11 93 24 158 14 66 28 142
31 169 4 28 18 96 31 153 14 57 36 131 50 165 15 34 46 88 70 121 24 32 46 68
49 80 3 11 11 54 20 95 11 56 25 89 60 140 35 52 48 82 59 141 8 41 25 111 37
155 18 66 21 96 16 171 -3 56 -12 104 -22 124 -9 18 -31 38 -50 46 -19 8 -53
14 -76 14 -34 0 -47 -6 -73 -33 -17 -19 -41 -63 -55 -103 -13 -38 -34 -89 -46
-114 -12 -25 -32 -76 -43 -115 -12 -38 -33 -88 -47 -110 -13 -22 -37 -65 -52
-95 -21 -42 -28 -69 -27 -115 0 -33 4 -94 8 -136 5 -42 6 -89 2 -103 -4 -15
-39 -61 -79 -101 -50 -52 -85 -99 -114 -157 -29 -57 -49 -114 -63 -181 -11
-54 -24 -106 -29 -115 -5 -10 -21 -78 -36 -152 -23 -118 -30 -139 -60 -176
-19 -23 -40 -55 -47 -71 -9 -20 -12 -115 -13 -324 0 -209 -3 -300 -12 -310 -6
-8 -25 -68 -42 -134 -21 -81 -31 -143 -31 -194 0 -54 -8 -98 -29 -166 -17 -50
-33 -114 -37 -142 -5 -41 -3 -53 11 -64 9 -8 31 -27 47 -42 30 -27 30 -30 26
-102 -4 -54 -12 -88 -33 -128 -26 -53 -27 -59 -20 -154 6 -80 4 -107 -9 -137
-9 -21 -29 -54 -46 -72 -16 -19 -30 -41 -30 -50 0 -8 11 -37 25 -64 14 -27 40
-64 59 -83 19 -19 53 -39 79 -47 27 -7 64 -10 89 -6 24 4 56 15 72 25 15 10
38 35 49 54 12 19 43 54 69 77 36 31 51 54 65 97 12 39 28 64 53 84 19 16 55
43 80 62 38 28 47 42 66 102 12 39 42 109 68 158 26 49 46 101 46 118 0 22 10
40 33 63 18 17 42 38 54 48 12 9 29 42 38 75 9 32 54 132 100 223 46 91 88
181 93 200 6 19 14 64 17 99 4 35 12 78 17 95 5 17 13 88 18 157 6 94 13 139
29 175 12 26 43 73 70 104 26 30 56 70 65 88 9 17 21 56 26 84 6 29 22 74 35
100 14 26 25 65 25 85 0 21 5 56 10 78 5 22 20 118 34 214 14 96 26 193 26
215 0 23 9 55 19 72 11 17 38 77 60 133 39 96 41 107 41 207 0 67 5 117 14
138 8 18 30 50 51 70 20 20 43 52 50 70 9 21 14 66 13 122 -1 78 2 95 25 141
15 29 36 92 47 140 12 48 35 112 53 142 l32 56 -3 145 c-3 137 -1 150 27 243
17 54 34 128 37 165 4 37 17 96 31 131 13 36 27 69 32 75 5 6 11 36 15 66 4
30 12 60 18 67 6 7 14 70 19 140 5 69 14 143 19 165 6 21 26 70 45 109 18 39
44 114 56 166 19 84 20 101 8 135 -12 37 -11 43 14 87 14 26 37 90 50 142 14
52 28 114 32 139 4 25 13 60 21 79 8 18 27 49 44 68 17 18 44 61 60 93 22 44
30 73 30 113 0 47 5 61 36 101 20 26 40 63 45 82 8 27 4 58 -16 142 -14 59
-34 133 -45 165 -11 31 -20 82 -20 113 0 40 6 67 20 90 14 22 24 64 31 126 8
72 19 112 49 178 31 69 39 101 45 174 4 50 13 110 20 135 7 25 20 65 29 88 8
23 20 99 26 170 6 70 17 153 25 183 8 30 15 82 15 115 1 33 6 80 11 105 6 25
12 86 14 135 2 60 10 107 23 140 11 28 34 75 50 105 17 31 47 96 67 145 19 50
51 115 70 147 19 31 35 60 35 65 0 6 9 18 20 28 11 10 26 38 32 63 6 24 25 61
43 83 26 30 36 55 45 109 6 38 19 79 28 90 10 12 38 24 66 29 26 5 56 17 66
27 9 11 25 41 34 67 10 26 35 69 55 95 21 26 42 56 48 67 6 11 13 36 17 56 4
21 13 43 22 50 9 7 24 29 34 48 10 20 41 56 69 79 28 24 60 60 70 80 10 21 24
56 30 79 6 22 26 74 45 115 18 40 52 97 74 126 27 36 45 76 56 119 9 36 25 82
36 102 10 20 41 59 69 86 34 33 56 65 66 96 12 36 31 61 79 103 39 34 72 74
85 102 12 25 37 68 56 95 18 27 39 66 45 86 7 21 25 62 41 91 16 29 39 92 50
140 11 48 35 119 52 157 21 48 32 91 35 137 3 45 -1 82 -13 117 -12 38 -30 63
-68 96 -40 35 -58 45 -77 42 -14 -3 -39 -11 -57 -18 -28 -11 -37 -11 -68 4
-20 9 -43 17 -53 17 -9 -1 -28 -7 -42 -15z m-159 -591 c11 -13 9 -22 -9 -58
-12 -23 -25 -65 -29 -93 -5 -43 -14 -62 -55 -110 -32 -39 -54 -76 -65 -113 -8
-30 -24 -72 -34 -93 -11 -20 -37 -48 -59 -62 -22 -14 -40 -33 -40 -42 0 -9 5
-42 12 -73 6 -31 8 -68 5 -82 -4 -15 -22 -36 -42 -48 -30 -18 -37 -32 -60
-108 -24 -79 -32 -92 -86 -145 -32 -32 -67 -74 -78 -95 -10 -20 -22 -48 -26
-62 -4 -13 -23 -47 -41 -73 -24 -35 -34 -60 -34 -87 0 -21 -4 -49 -9 -62 -5
-13 -20 -29 -34 -37 -14 -7 -33 -31 -43 -54 -10 -22 -32 -48 -49 -58 -16 -11
-33 -19 -36 -19 -4 0 -9 30 -13 68 -6 61 -4 76 27 157 18 50 49 111 68 136 20
26 43 73 53 108 10 37 30 76 49 98 18 20 42 48 55 62 12 13 30 47 40 74 12 35
31 61 66 90 l48 41 -6 103 c-5 69 -4 115 4 139 8 24 23 40 50 54 32 16 41 28
51 63 6 23 20 58 30 77 11 19 38 47 59 63 26 18 44 42 56 75 10 26 31 63 48
83 17 20 39 50 48 67 12 22 24 32 41 32 14 0 30 -7 38 -16z m-830 -1621 c1
-10 1 -36 0 -58 -1 -22 -7 -50 -13 -62 -8 -17 -20 -23 -45 -23 -21 0 -36 6
-39 15 -4 8 -4 25 0 38 3 12 22 42 41 65 20 23 41 42 46 42 5 0 10 -8 10 -17z"/>
<path d="M5035 11842 c-27 -10 -74 -34 -103 -54 -30 -20 -102 -83 -162 -141
-59 -57 -116 -120 -125 -138 -10 -19 -35 -56 -56 -83 -22 -27 -39 -57 -39 -68
0 -10 11 -41 25 -67 13 -27 36 -58 50 -69 14 -11 51 -28 83 -38 31 -9 67 -23
80 -31 17 -10 22 -23 22 -53 0 -22 -12 -65 -26 -97 -14 -32 -33 -94 -42 -138
-9 -44 -16 -109 -16 -145 0 -53 5 -77 29 -125 22 -45 36 -61 54 -63 16 -3 35
7 61 33 24 23 51 68 75 123 20 48 52 121 70 162 19 41 39 102 44 134 6 33 11
78 11 100 0 25 12 66 31 106 18 37 33 88 36 120 4 46 10 60 38 85 27 24 39 50
64 134 19 63 31 127 31 160 0 33 -8 73 -19 97 -10 23 -29 49 -42 58 -14 10
-43 16 -74 16 -27 -1 -72 -9 -100 -18z"/>
<path d="M17450 11723 c-8 -3 -34 -25 -57 -50 l-43 -45 -57 7 c-32 3 -68 9
-79 12 -15 3 -36 -8 -71 -39 -28 -24 -64 -51 -81 -60 -19 -10 -34 -28 -38 -45
-4 -15 -13 -36 -21 -45 -8 -9 -33 -20 -56 -23 -24 -5 -52 -18 -68 -34 -17 -17
-31 -48 -39 -83 -12 -54 -12 -58 13 -101 17 -28 40 -51 64 -63 23 -11 58 -18
88 -17 28 0 64 2 80 4 17 1 68 -5 115 -15 47 -10 104 -29 127 -43 33 -19 46
-22 62 -14 11 6 41 29 66 51 26 23 57 40 70 40 13 0 41 -11 61 -25 20 -14 42
-25 49 -25 6 0 34 7 62 15 27 8 56 23 65 32 8 10 29 54 46 99 18 44 32 85 32
90 0 6 -14 23 -30 39 -19 18 -37 51 -47 85 -9 30 -21 62 -26 72 -6 9 -29 27
-51 39 -23 13 -69 49 -103 81 -34 32 -69 58 -77 58 -8 0 -20 2 -28 4 -7 3 -20
2 -28 -1z"/>
<path d="M30525 11440 c-3 -5 -1 -10 4 -10 6 0 11 5 11 10 0 6 -2 10 -4 10 -3
0 -8 -4 -11 -10z"/>
<path d="M13457 11260 c-24 -21 -56 -44 -73 -50 -16 -6 -76 -15 -134 -20 -82
-7 -122 -6 -182 6 -74 15 -77 15 -118 -6 -28 -15 -53 -20 -74 -17 -17 3 -53
11 -79 18 -37 10 -72 10 -154 2 -92 -10 -115 -16 -177 -49 -39 -21 -97 -51
-128 -67 -31 -15 -66 -41 -78 -57 -11 -16 -31 -73 -45 -127 -13 -54 -27 -117
-31 -140 -3 -23 -4 -53 0 -67 4 -17 21 -33 49 -47 23 -12 57 -35 76 -51 32
-28 38 -30 105 -26 63 4 78 9 134 45 46 31 87 47 155 63 59 14 101 30 117 44
14 13 55 44 93 71 37 26 90 56 117 66 28 10 60 19 73 19 13 0 36 15 54 33 23
25 51 39 105 55 40 12 109 31 152 42 44 11 101 20 127 20 29 0 70 9 101 24 35
15 67 40 96 74 31 38 42 59 42 85 0 22 -8 41 -24 56 -13 13 -41 27 -63 32 -21
5 -73 9 -116 9 -76 0 -78 0 -120 -40z"/>
<path d="M18435 9484 c-28 -15 -60 -35 -72 -46 -12 -11 -25 -33 -28 -48 -3
-15 -37 -59 -76 -99 -54 -53 -81 -73 -112 -81 -23 -6 -58 -15 -78 -20 -20 -5
-58 -26 -85 -46 -27 -21 -62 -49 -77 -63 -16 -14 -46 -56 -68 -93 -21 -37 -55
-80 -75 -96 -20 -17 -50 -37 -68 -45 -17 -9 -63 -30 -102 -47 -46 -21 -88 -49
-118 -79 -26 -26 -50 -61 -55 -77 -6 -24 -14 -30 -49 -36 -22 -4 -51 -12 -62
-18 -12 -7 -32 -36 -45 -65 -18 -39 -30 -54 -47 -57 -13 -2 -41 4 -63 14 -22
10 -48 18 -57 18 -9 0 -29 -16 -44 -35 -17 -22 -40 -39 -64 -45 -20 -6 -49
-19 -63 -30 -14 -11 -37 -40 -51 -64 -18 -31 -36 -48 -58 -55 -18 -6 -55 -15
-82 -21 -26 -6 -98 -35 -160 -65 -90 -45 -117 -64 -145 -100 -33 -45 -34 -45
-94 -45 -33 0 -77 -5 -99 -12 -25 -7 -50 -25 -66 -46 -14 -18 -42 -42 -63 -52
-20 -11 -68 -31 -106 -45 -37 -15 -122 -35 -188 -45 -66 -10 -139 -25 -162
-34 -40 -15 -48 -15 -126 5 -74 19 -89 27 -139 74 l-56 53 -7 115 c-4 63 -4
134 0 158 4 24 22 78 41 120 19 42 38 107 44 147 5 39 22 100 36 135 15 36 46
91 71 123 24 33 52 84 63 114 11 30 25 62 30 70 5 8 26 45 45 82 27 51 44 72
73 87 20 11 48 29 61 41 12 13 36 51 51 86 16 34 38 72 49 83 12 12 21 30 21
41 0 12 -12 33 -26 47 -22 22 -31 25 -70 19 -25 -3 -59 -17 -77 -30 -18 -14
-70 -36 -117 -49 -47 -14 -93 -28 -102 -32 -10 -4 -28 -23 -40 -43 -12 -21
-52 -71 -88 -112 -36 -41 -82 -95 -101 -120 -18 -25 -84 -95 -145 -156 -67
-67 -123 -133 -140 -165 -25 -47 -38 -58 -98 -89 -54 -27 -80 -48 -118 -97
-27 -34 -57 -65 -67 -68 -10 -3 -33 -4 -51 -3 -24 2 -37 -4 -52 -22 -11 -14
-34 -50 -51 -80 -27 -46 -40 -57 -82 -73 -27 -11 -64 -25 -82 -33 -24 -10 -39
-28 -63 -79 -17 -36 -41 -72 -53 -79 -12 -8 -35 -18 -52 -21 -16 -4 -55 -16
-85 -27 -32 -11 -74 -37 -102 -64 -26 -24 -52 -44 -57 -44 -5 0 -36 -23 -67
-50 -32 -28 -75 -55 -98 -62 -23 -6 -64 -25 -93 -41 -31 -17 -74 -31 -107 -34
-50 -5 -60 -3 -106 27 -32 21 -68 58 -100 103 -50 70 -50 71 -50 149 0 53 7
97 20 135 11 32 20 75 20 96 0 21 -5 47 -11 58 -7 13 -16 18 -26 14 -9 -3 -20
0 -25 7 -4 7 -8 26 -8 42 0 16 12 53 27 83 17 36 29 81 34 131 4 42 14 109 23
147 9 39 16 117 16 176 0 58 -5 121 -11 138 -6 18 -20 36 -31 40 -11 4 -33 5
-48 3 -15 -2 -48 -21 -73 -41 -28 -24 -67 -43 -108 -55 -35 -9 -88 -24 -116
-32 -38 -11 -69 -30 -110 -68 -32 -29 -84 -69 -116 -90 -31 -21 -71 -54 -87
-74 -16 -20 -45 -68 -65 -107 -21 -43 -56 -90 -89 -122 -29 -29 -61 -53 -69
-53 -9 0 -28 5 -43 12 -24 11 -29 10 -49 -14 -13 -15 -33 -57 -45 -93 -19 -58
-29 -71 -72 -102 -38 -28 -58 -52 -82 -102 -22 -47 -42 -72 -66 -86 -19 -11
-53 -39 -76 -62 -23 -23 -61 -73 -83 -111 -31 -53 -49 -73 -72 -81 -18 -6 -44
-11 -60 -11 -18 0 -35 9 -48 26 -18 23 -21 41 -21 125 0 53 5 133 11 176 5 43
17 100 25 127 8 27 14 76 14 109 0 39 -8 80 -26 125 -14 37 -37 77 -51 90 -19
17 -28 20 -44 12 -10 -6 -28 -28 -39 -49 -10 -21 -26 -41 -35 -45 -9 -3 -35
-6 -58 -6 -25 0 -66 -11 -102 -28 -33 -16 -66 -36 -73 -45 -8 -9 -35 -28 -60
-43 -26 -15 -67 -50 -92 -77 -24 -28 -75 -69 -112 -93 -47 -31 -77 -59 -101
-97 -19 -29 -49 -64 -67 -78 -18 -13 -49 -40 -69 -60 -20 -19 -48 -43 -62 -51
-14 -9 -34 -34 -44 -55 -10 -21 -38 -61 -62 -89 -24 -29 -58 -58 -76 -65 -17
-7 -52 -26 -77 -42 -25 -17 -65 -49 -90 -72 -25 -22 -79 -64 -120 -92 -58 -39
-85 -65 -117 -114 -22 -35 -46 -81 -52 -101 -10 -31 -19 -39 -49 -47 -20 -6
-55 -13 -76 -16 -29 -5 -50 -17 -75 -46 -23 -24 -54 -44 -86 -55 -27 -9 -72
-33 -100 -54 -27 -21 -62 -40 -77 -44 -24 -5 -30 -2 -44 25 -10 21 -14 44 -11
66 5 31 2 39 -31 69 l-37 34 3 87 c1 49 11 158 21 243 11 85 22 220 26 300 3
80 11 179 16 220 6 41 24 118 41 170 17 55 34 137 40 195 6 55 23 154 39 220
16 66 41 163 54 215 14 52 26 124 28 160 1 49 -4 80 -22 125 -12 33 -28 73
-33 88 -6 15 -24 35 -39 43 -16 8 -49 17 -73 20 -24 4 -61 3 -80 0 -25 -5 -61
-29 -116 -77 -43 -38 -88 -84 -99 -102 -11 -19 -28 -81 -40 -143 -10 -61 -27
-126 -36 -144 -9 -18 -20 -70 -24 -114 -6 -61 -15 -94 -34 -127 -15 -25 -38
-81 -53 -124 -24 -75 -25 -88 -19 -200 4 -77 2 -140 -5 -175 -7 -30 -15 -128
-18 -216 l-7 -162 -40 -58 -40 -58 1 -420 c1 -344 4 -438 18 -516 9 -52 21
-111 26 -131 7 -26 18 -40 38 -47 15 -6 54 -16 86 -22 33 -5 88 -10 123 -10
35 0 79 6 98 14 18 8 41 26 51 41 9 14 29 32 43 39 14 8 51 17 81 21 30 4 71
16 90 27 19 11 73 60 119 109 46 50 101 99 122 110 21 10 46 31 55 45 10 14
44 44 76 67 32 23 90 65 128 92 39 28 104 76 145 108 41 32 82 71 90 86 7 15
19 49 26 75 6 25 20 57 31 71 12 16 44 32 89 45 70 21 71 22 94 74 12 28 29
57 37 63 7 6 27 15 43 19 17 3 40 16 52 27 12 11 30 43 39 71 9 28 23 61 30
74 10 16 24 22 49 22 18 0 41 7 50 16 8 9 22 31 29 49 8 18 24 39 36 45 11 6
38 10 58 8 l37 -3 -1 -55 c-1 -31 -13 -89 -28 -133 -23 -67 -28 -103 -35 -250
-5 -95 -5 -197 -1 -227 5 -30 11 -64 16 -75 4 -11 18 -34 31 -52 16 -22 35
-34 60 -39 21 -4 64 -2 98 5 33 7 68 20 77 28 9 8 20 28 23 44 4 16 22 47 40
69 19 22 37 49 40 60 4 11 17 23 31 26 13 3 44 3 68 0 23 -4 62 -4 85 0 40 6
44 10 76 75 19 38 43 72 52 77 10 5 34 12 53 16 19 3 49 15 66 25 17 11 46 45
64 78 18 32 54 79 79 104 25 26 71 73 101 106 30 33 78 88 105 122 28 35 68
75 90 89 22 14 46 32 52 41 7 9 27 40 44 69 29 50 32 52 75 52 44 0 44 0 68
53 18 41 34 60 73 85 27 18 57 32 65 32 9 0 18 -6 21 -13 3 -7 11 -48 17 -90
11 -66 10 -93 -3 -180 -9 -56 -23 -153 -32 -215 -15 -109 -15 -115 4 -165 11
-29 33 -81 50 -117 16 -36 43 -84 59 -108 16 -24 53 -60 82 -80 29 -20 59 -41
66 -47 8 -6 21 -4 38 4 15 9 41 12 65 8 22 -3 68 -19 102 -36 34 -17 67 -31
72 -31 5 0 27 15 48 34 23 21 53 37 76 41 21 4 85 30 142 57 57 28 139 75 182
105 43 30 103 62 132 72 30 9 88 39 128 66 41 26 90 62 110 79 20 17 57 43 81
57 26 15 59 48 80 80 21 30 61 80 91 112 53 56 55 57 110 57 45 0 61 5 87 26
17 15 50 40 73 55 30 20 45 25 54 17 7 -6 13 -31 13 -57 0 -25 -10 -66 -21
-91 -13 -26 -23 -75 -26 -115 -5 -63 -2 -77 21 -120 14 -28 35 -66 46 -85 11
-19 20 -51 20 -70 0 -20 11 -58 25 -86 13 -27 40 -66 59 -87 32 -35 37 -37 98
-37 42 0 71 -5 87 -16 18 -13 36 -15 77 -10 38 4 65 2 90 -9 20 -8 56 -15 81
-15 26 0 62 9 91 24 26 13 67 27 92 31 25 4 63 20 85 35 22 14 59 34 81 43 23
9 70 23 104 32 35 9 82 29 105 45 23 16 52 45 66 64 13 20 38 42 54 50 17 8
64 19 105 26 41 6 85 17 97 25 11 8 33 38 46 67 14 30 34 61 44 70 10 9 44 28
75 42 31 14 86 30 121 35 36 5 74 14 85 20 11 6 29 22 40 36 11 14 60 47 109
74 48 27 114 56 145 65 32 9 73 29 90 45 18 16 51 38 74 49 31 16 48 35 73 81
17 33 40 63 51 66 11 4 28 4 38 0 13 -3 28 4 47 22 15 16 36 47 47 70 17 36
26 44 56 49 21 4 45 14 56 23 10 9 25 30 32 48 8 18 14 43 14 57 0 13 6 26 14
29 7 3 24 -1 35 -10 12 -8 26 -26 32 -40 6 -17 2 -58 -16 -144 -13 -66 -28
-162 -31 -213 -5 -73 -3 -103 10 -143 9 -27 30 -62 46 -78 26 -25 34 -27 77
-22 35 4 69 -2 127 -20 62 -19 84 -23 102 -14 13 5 32 28 43 50 12 22 26 43
32 47 6 3 28 1 49 -6 36 -12 39 -11 85 25 36 27 56 35 74 32 14 -3 36 -8 49
-12 19 -6 22 -4 22 19 0 15 8 39 17 54 9 15 26 38 37 50 12 13 48 37 81 53 33
16 74 40 92 53 17 12 52 26 76 29 24 4 70 16 101 28 46 17 77 40 148 110 76
75 99 92 142 103 28 8 63 17 78 20 14 3 48 23 75 44 27 22 58 44 70 50 12 7
38 12 58 12 25 0 43 -8 60 -25 14 -13 25 -35 25 -48 0 -13 9 -58 19 -99 11
-42 23 -109 26 -149 4 -41 16 -114 26 -164 10 -49 26 -107 35 -127 9 -21 25
-40 36 -44 14 -4 34 8 76 48 31 30 88 76 126 103 38 28 96 74 129 103 34 29
66 61 73 70 6 9 17 41 23 70 6 29 11 73 11 98 0 25 5 65 11 90 9 33 9 63 0
117 -6 40 -18 136 -26 215 -9 82 -22 156 -30 173 -9 17 -33 49 -53 71 -20 23
-51 47 -69 55 -18 7 -46 13 -62 13 -17 0 -51 -11 -78 -25 -41 -22 -59 -25
-125 -24 -66 2 -81 0 -100 -18 -13 -11 -56 -41 -96 -67 -40 -25 -89 -53 -110
-61 -20 -9 -55 -33 -77 -54 -22 -20 -67 -53 -99 -72 -32 -19 -80 -55 -105 -80
-25 -25 -60 -53 -77 -62 -17 -9 -63 -23 -102 -32 -39 -9 -75 -22 -80 -28 -5
-7 -12 -24 -16 -39 -3 -15 -18 -39 -33 -52 -15 -14 -40 -31 -56 -37 -24 -10
-32 -9 -57 10 -16 11 -37 21 -47 21 -10 0 -48 -11 -85 -24 -57 -21 -67 -22
-72 -9 -3 8 -6 37 -6 64 0 28 7 64 16 82 9 18 36 59 59 92 23 33 73 125 111
205 37 80 77 155 87 167 11 12 35 27 53 33 22 8 43 27 63 59 17 26 31 57 31
69 0 11 -9 42 -20 69 -12 26 -28 54 -37 61 -9 6 -19 12 -22 12 -4 0 -29 -12
-56 -26z"/>
<path d="M39055 9295 c-5 -2 -23 -6 -38 -10 -16 -3 -50 -25 -75 -49 -26 -24
-67 -54 -92 -66 -25 -12 -58 -32 -75 -45 -16 -12 -49 -32 -72 -43 -22 -12 -51
-33 -62 -48 -16 -20 -21 -41 -21 -87 0 -60 1 -62 50 -108 28 -26 64 -50 80
-54 19 -4 41 -1 61 9 17 9 54 18 83 22 28 3 73 13 100 21 27 9 81 37 120 63
39 26 96 57 126 69 31 12 81 39 113 60 32 21 69 53 82 71 14 19 25 45 25 58 0
13 -17 44 -37 69 -21 26 -52 52 -70 60 -22 9 -74 13 -160 12 -70 0 -132 -2
-138 -4z"/>
<path d="M3205 7893 c-11 -3 -35 -17 -54 -31 -19 -14 -49 -31 -68 -37 -19 -6
-51 -9 -71 -6 -20 4 -63 4 -94 0 -33 -4 -69 -16 -88 -29 -17 -12 -39 -39 -50
-60 -11 -21 -37 -83 -59 -137 -23 -55 -46 -133 -52 -174 -6 -41 -12 -182 -15
-314 -2 -140 -9 -254 -15 -275 -7 -19 -20 -47 -30 -61 -10 -15 -24 -39 -30
-55 -6 -16 -15 -78 -20 -139 -7 -76 -6 -151 2 -245 10 -114 9 -164 -5 -320 -9
-102 -22 -206 -28 -232 -10 -42 -9 -56 17 -135 15 -48 38 -109 51 -134 13 -26
37 -58 54 -73 27 -22 41 -26 93 -26 34 0 83 -8 110 -17 46 -16 49 -16 110 4
34 12 91 32 127 45 36 13 90 43 120 66 30 23 89 66 130 96 41 30 89 74 106 99
28 39 39 46 90 58 55 14 61 18 84 61 13 26 35 52 48 57 13 6 40 11 61 11 38 0
40 2 104 99 36 54 78 108 93 120 15 12 39 24 53 27 14 3 49 13 76 22 37 11 66
31 110 76 48 49 73 86 122 186 33 69 64 135 67 148 4 12 14 22 21 22 8 0 26
-5 42 -11 15 -6 42 -8 60 -4 24 4 56 29 111 85 55 55 90 82 118 90 22 7 71 33
109 58 38 26 82 65 97 87 17 25 27 53 28 75 0 19 -4 40 -8 46 -4 6 -29 26 -56
43 -28 17 -63 31 -80 31 -17 0 -44 -9 -61 -20 -16 -11 -61 -41 -100 -68 -38
-26 -79 -63 -90 -82 -11 -18 -37 -49 -58 -69 -21 -20 -68 -66 -106 -102 -49
-48 -85 -73 -125 -88 -31 -12 -61 -21 -66 -21 -6 0 -27 -17 -48 -38 -20 -20
-61 -57 -89 -81 -29 -23 -61 -56 -70 -73 -10 -16 -35 -38 -55 -49 -21 -10 -42
-19 -48 -19 -6 0 -35 -19 -64 -42 -30 -24 -66 -51 -80 -61 -14 -9 -34 -38 -45
-62 -19 -43 -22 -45 -61 -45 -32 0 -48 -6 -68 -27 -15 -16 -52 -56 -83 -90
-30 -34 -68 -67 -83 -73 -15 -5 -31 -8 -36 -5 -5 3 -20 0 -33 -6 -14 -6 -32
-25 -40 -43 -9 -17 -21 -45 -27 -63 -7 -18 -21 -34 -33 -37 -12 -3 -31 -6 -43
-6 -11 0 -28 8 -37 18 -10 10 -17 35 -17 56 0 20 -16 84 -35 142 -26 78 -35
121 -35 172 0 37 6 92 14 122 9 36 23 60 40 73 14 10 26 27 26 37 0 9 -6 23
-14 29 -8 7 -17 25 -21 40 -3 16 1 71 10 122 9 52 29 135 45 184 15 50 35 125
44 167 9 42 16 95 16 116 0 25 9 52 25 76 14 20 34 71 46 114 14 55 23 136 31
278 6 111 7 219 4 239 -4 21 -20 51 -36 67 -16 15 -37 27 -47 27 -10 -1 -27
-4 -38 -6z"/>
<path d="M35189 4188 c-10 -18 -8 -24 10 -39 11 -9 30 -15 40 -12 11 3 22 12
25 20 3 8 1 23 -4 34 -6 11 -21 19 -35 19 -15 0 -29 -9 -36 -22z"/>
</g>
</svg>
